PathFileType	4	(X/Y/Z)	/Users/visionmauri/4_1_1_f_Sports2D/4_1_1_f_Sports2D_px_person00.trc
DataRate	CameraRate	NumFrames	NumMarkers	Units	OrigDataRate	OrigDataStartFrame	OrigNumFrames
30.0	30.0	5	22	m	30.0	44	355
Frame#	Time	Hip			RHip			RKnee			RAnkle			RBigToe			RSmallToe			RHeel			LHip			LKnee			LAnkle			LBigToe			LSmallToe			LHeel			Neck			Head			Nose			RShoulder			RElbow			RWrist			LShoulder			LElbow			LWrist			
		X1	Y1	Z1	X2	Y2	Z2	X3	Y3	Z3	X4	Y4	Z4	X5	Y5	Z5	X6	Y6	Z6	X7	Y7	Z7	X8	Y8	Z8	X9	Y9	Z9	X10	Y10	Z10	X11	Y11	Z11	X12	Y12	Z12	X13	Y13	Z13	X14	Y14	Z14	X15	Y15	Z15	X16	Y16	Z16	X17	Y17	Z17	X18	Y18	Z18	X19	Y19	Z19	X20	Y20	Z20	X21	Y21	Z21	X22	Y22	Z22
44	1.4708097928436912	553.6918750936926	869.6812299253883	0.0	622.3007898078648	875.0849064500883	0.0	651.7241521647669	1094.124753475487	0.0	652.040887319131	1110.5720740321433	0.0	631.1481851572764	1109.3482465103787	0.0	686.0370368390384	1124.20668039818	0.0	645.8086685125753	1101.1903176766116	0.0	487.7020259437275	887.3372038187829	0.0	499.68246558288206	1131.9935835523486	0.0	507.77134878435163	1370.820224727977	0.0	484.8218419129526	1402.970188542991	0.0	466.4467637343318	1413.5777151282127	0.0	519.8017426087155	1410.0187650267953	0.0	548.7978881506532	524.1683060915517	0.0	547.5355912557474	407.532332160155	0.0	549.6761544503378	469.6661254159113	0.0	663.3273712704512	557.9845563449486	0.0	745.5126318481289	721.8869787989165	0.0	786.5893960395549	863.8247895757505	0.0	434.8093565134285	568.092625011602	0.0	341.21295487058774	717.662353150089	0.0	332.2190975441625	862.867270219478	0.0
45	1.5042372881355932	551.4705619814612	867.3533980758614	0.0	619.4137818402247	871.389386815147	0.0	652.2584833877354	1090.7428406870774	0.0	652.0057384387092	1102.11304432059	0.0	629.5258391427423	1097.6582023975016	0.0	686.2862261554053	1104.6278909647608	0.0	646.2360960043037	1095.9805485568768	0.0	485.90150041623957	883.9306505068687	0.0	498.797669236277	1131.4868458935925	0.0	507.2872394837989	1369.2393479104637	0.0	485.91003020173133	1403.5566116381365	0.0	466.7357932705288	1415.039118961938	0.0	518.6545821245062	1407.9367954695765	0.0	544.196052522832	523.3458545727256	0.0	541.3559632291948	407.46918915962885	0.0	541.6772540817285	469.539177949	0.0	657.6019257183948	555.9639225259626	0.0	738.0834369472675	718.9778859138684	0.0	784.5221594256464	860.4599266870354	0.0	430.8338413027315	566.3364858423463	0.0	339.0093298933406	715.0710103313008	0.0	331.9128963074542	859.690735214037	0.0
46	1.5376647834274955	548.3715585219879	864.7174929670585	0.0	616.7435019216034	866.677101198043	0.0	652.9742704750183	1087.3237001714374	0.0	653.4097182084997	1096.8033569314405	0.0	630.543550687841	1085.515584291638	0.0	689.0075242244478	1088.1957858301844	0.0	647.2020155045639	1092.8911086306525	0.0	483.3432039547725	878.8220374196834	0.0	498.23486203473595	1132.6657749175988	0.0	506.9940958357615	1368.6668804851847	0.0	487.53711594482485	1403.3592403688247	0.0	467.6155678217304	1415.743396325146	0.0	517.608842287289	1408.784715397676	0.0	539.8643240729067	523.1673919053085	0.0	537.0038727415794	407.0928672382603	0.0	535.0449219592979	470.04963054575586	0.0	651.5464803685071	553.0203059233922	0.0	730.7631065400831	715.8672073814749	0.0	782.2835345511395	856.9340249091784	0.0	426.32012746934066	564.3944507346044	0.0	336.6082600576948	710.597149241582	0.0	331.62271804366884	857.2040757417873	0.0
47	1.5710922787193975	545.17409779894	861.2322356120228	0.0	614.4733309752721	863.0591781189108	0.0	653.6328586353723	1082.2051218152353	0.0	655.3482850371454	1093.157962417934	0.0	632.5374254503606	1079.6299020996482	0.0	690.4422583783304	1079.2696530704518	0.0	648.0598789661334	1085.0741435810971	0.0	480.23514780358346	874.7298267312091	0.0	497.7328706043774	1132.6500449410908	0.0	507.31000180732497	1369.0115439057292	0.0	487.99283031507315	1402.0625628697057	0.0	467.4619410436691	1415.3611163986675	0.0	517.1920310058559	1411.8334821404458	0.0	535.5535191837373	522.940688342838	0.0	534.3085894562854	407.70753238593494	0.0	531.0214294325863	470.39394235403216	0.0	645.2437959171834	551.141007719646	0.0	724.3989677596493	713.7657376402343	0.0	780.0959532879995	854.1101106177541	0.0	421.7858587072637	563.8985535240927	0.0	332.7434607569069	705.2004954985824	0.0	331.6167244943087	855.7366115955538	0.0
48	1.6045197740112995	542.6929379076403	858.4459041827001	0.0	612.6745133172047	860.9218716054521	0.0	654.532093613379	1076.891818264157	0.0	657.111384321206	1085.7029645930122	0.0	634.2164328949755	1079.4080717276704	0.0	689.3329791806951	1075.7768966629642	0.0	649.4931423288896	1070.6586987890823	0.0	478.0541780029245	873.2168749752684	0.0	497.65242205241793	1131.8472460084013	0.0	507.95288654555435	1369.2920238811967	0.0	488.1671543862463	1401.4355985085222	0.0	467.8346261206696	1414.7186517020614	0.0	517.2517877635138	1413.5339657744223	0.0	531.2788252508408	522.1602792369749	0.0	531.8458500378798	409.6932715738085	0.0	528.047464531235	470.07377651130804	0.0	639.3172094491166	550.6948488085147	0.0	719.3489460726404	712.9159288127091	0.0	778.2513054591693	852.543439952599	0.0	417.2998789464634	564.6460937157852	0.0	327.6722542885376	701.5722711148688	0.0	331.5930975256997	854.5746371494889	0.0
